<mxfile host="app.diagrams.net" modified="2022-08-23T10:06:50.842Z" agent="5.0 (Windows NT 10.0; Win64; x64) AppleWebKit/537.36 (KHTML, like Gecko) Chrome/104.0.0.0 Safari/537.36" etag="ekPAJlXNHy_3CS-36iZz" version="20.2.5" type="github">
  <diagram id="RIUP_wDPa-TaNX-vlD8p" name="Page-1">
    <mxGraphModel dx="1422" dy="772" grid="1" gridSize="10" guides="1" tooltips="1" connect="1" arrows="1" fold="1" page="1" pageScale="1" pageWidth="827" pageHeight="1169" math="0" shadow="0">
      <root>
        <mxCell id="0" />
        <mxCell id="1" parent="0" />
        <mxCell id="K25vXs8WVTMCiBZxx53v-1" value="" style="aspect=fixed;html=1;points=[];align=center;image;fontSize=12;image=img/lib/azure2/networking/DNS_Zones.svg;" vertex="1" parent="1">
          <mxGeometry x="50" y="100" width="64" height="64" as="geometry" />
        </mxCell>
        <mxCell id="K25vXs8WVTMCiBZxx53v-7" style="edgeStyle=orthogonalEdgeStyle;rounded=0;orthogonalLoop=1;jettySize=auto;html=1;" edge="1" parent="1" source="K25vXs8WVTMCiBZxx53v-2" target="K25vXs8WVTMCiBZxx53v-4">
          <mxGeometry relative="1" as="geometry" />
        </mxCell>
        <mxCell id="K25vXs8WVTMCiBZxx53v-2" value="WebBrowser" style="aspect=fixed;html=1;points=[];align=center;image;fontSize=12;image=img/lib/azure2/general/Browser.svg;" vertex="1" parent="1">
          <mxGeometry x="49" y="240" width="65" height="52" as="geometry" />
        </mxCell>
        <mxCell id="K25vXs8WVTMCiBZxx53v-36" style="edgeStyle=orthogonalEdgeStyle;rounded=0;orthogonalLoop=1;jettySize=auto;html=1;exitX=0.955;exitY=0.5;exitDx=0;exitDy=0;exitPerimeter=0;entryX=0.5;entryY=1;entryDx=0;entryDy=0;" edge="1" parent="1" source="K25vXs8WVTMCiBZxx53v-4" target="K25vXs8WVTMCiBZxx53v-110">
          <mxGeometry relative="1" as="geometry" />
        </mxCell>
        <mxCell id="K25vXs8WVTMCiBZxx53v-4" value="Load Balancer" style="verticalLabelPosition=bottom;html=1;verticalAlign=top;align=center;strokeColor=none;fillColor=#00BEF2;shape=mxgraph.azure.azure_load_balancer;" vertex="1" parent="1">
          <mxGeometry x="270" y="248.5" width="50" height="35" as="geometry" />
        </mxCell>
        <mxCell id="K25vXs8WVTMCiBZxx53v-5" value="" style="endArrow=classic;html=1;rounded=0;" edge="1" parent="1" source="K25vXs8WVTMCiBZxx53v-2" target="K25vXs8WVTMCiBZxx53v-1">
          <mxGeometry width="50" height="50" relative="1" as="geometry">
            <mxPoint x="260" y="510" as="sourcePoint" />
            <mxPoint x="310" y="460" as="targetPoint" />
          </mxGeometry>
        </mxCell>
        <mxCell id="K25vXs8WVTMCiBZxx53v-6" value="" style="endArrow=classic;html=1;rounded=0;entryX=0.57;entryY=0;entryDx=0;entryDy=0;entryPerimeter=0;" edge="1" parent="1" source="K25vXs8WVTMCiBZxx53v-2" target="K25vXs8WVTMCiBZxx53v-11">
          <mxGeometry width="50" height="50" relative="1" as="geometry">
            <mxPoint x="270" y="420" as="sourcePoint" />
            <mxPoint x="101.554347826087" y="430" as="targetPoint" />
          </mxGeometry>
        </mxCell>
        <mxCell id="K25vXs8WVTMCiBZxx53v-11" value="CDN" style="verticalLabelPosition=bottom;html=1;verticalAlign=top;align=center;strokeColor=none;fillColor=#00BEF2;shape=mxgraph.azure.content_delivery_network;" vertex="1" parent="1">
          <mxGeometry x="50" y="410" width="50" height="32.5" as="geometry" />
        </mxCell>
        <mxCell id="K25vXs8WVTMCiBZxx53v-13" style="edgeStyle=orthogonalEdgeStyle;rounded=0;orthogonalLoop=1;jettySize=auto;html=1;" edge="1" parent="1" source="K25vXs8WVTMCiBZxx53v-12" target="K25vXs8WVTMCiBZxx53v-4">
          <mxGeometry relative="1" as="geometry" />
        </mxCell>
        <mxCell id="K25vXs8WVTMCiBZxx53v-12" value="Scheduler" style="verticalLabelPosition=bottom;html=1;verticalAlign=top;align=center;strokeColor=none;fillColor=#00BEF2;shape=mxgraph.azure.scheduler;pointerEvents=1;" vertex="1" parent="1">
          <mxGeometry x="275" y="70" width="40" height="50" as="geometry" />
        </mxCell>
        <mxCell id="K25vXs8WVTMCiBZxx53v-14" value="Identity Server" style="verticalLabelPosition=bottom;html=1;verticalAlign=top;align=center;strokeColor=none;fillColor=#00BEF2;shape=mxgraph.azure.access_control;fontSize=11;" vertex="1" parent="1">
          <mxGeometry x="170" y="300" width="40" height="40" as="geometry" />
        </mxCell>
        <mxCell id="K25vXs8WVTMCiBZxx53v-29" value="Cluster : &lt;span style=&quot;font-weight: normal;&quot;&gt;Kubernetes/OpenShift&lt;/span&gt;" style="text;html=1;align=center;verticalAlign=middle;resizable=0;points=[];autosize=1;strokeColor=none;fillColor=none;fontSize=14;fontStyle=1" vertex="1" parent="1">
          <mxGeometry x="600" y="39" width="220" height="30" as="geometry" />
        </mxCell>
        <mxCell id="K25vXs8WVTMCiBZxx53v-74" style="edgeStyle=none;rounded=0;orthogonalLoop=1;jettySize=auto;html=1;entryX=0.245;entryY=0.3;entryDx=0;entryDy=0;entryPerimeter=0;fontSize=11;" edge="1" parent="1" source="K25vXs8WVTMCiBZxx53v-2" target="K25vXs8WVTMCiBZxx53v-14">
          <mxGeometry relative="1" as="geometry" />
        </mxCell>
        <mxCell id="K25vXs8WVTMCiBZxx53v-82" style="edgeStyle=none;rounded=0;orthogonalLoop=1;jettySize=auto;html=1;entryX=0.5;entryY=0;entryDx=0;entryDy=0;fontSize=11;exitX=0.5;exitY=1;exitDx=0;exitDy=0;" edge="1" parent="1" source="K25vXs8WVTMCiBZxx53v-113" target="K25vXs8WVTMCiBZxx53v-75">
          <mxGeometry relative="1" as="geometry">
            <mxPoint x="740" y="450" as="sourcePoint" />
            <mxPoint x="887.2600000000002" y="409" as="targetPoint" />
          </mxGeometry>
        </mxCell>
        <mxCell id="K25vXs8WVTMCiBZxx53v-86" style="edgeStyle=none;rounded=0;orthogonalLoop=1;jettySize=auto;html=1;entryX=0.05;entryY=0.5;entryDx=0;entryDy=0;entryPerimeter=0;fontSize=11;exitX=0.755;exitY=0.3;exitDx=0;exitDy=0;exitPerimeter=0;" edge="1" parent="1" source="K25vXs8WVTMCiBZxx53v-14" target="K25vXs8WVTMCiBZxx53v-4">
          <mxGeometry relative="1" as="geometry">
            <mxPoint x="340" y="420" as="sourcePoint" />
            <mxPoint x="200" y="363.6" as="targetPoint" />
          </mxGeometry>
        </mxCell>
        <mxCell id="K25vXs8WVTMCiBZxx53v-111" style="edgeStyle=none;rounded=0;orthogonalLoop=1;jettySize=auto;html=1;exitX=0.5;exitY=0;exitDx=0;exitDy=0;fontSize=14;" edge="1" parent="1" source="K25vXs8WVTMCiBZxx53v-110">
          <mxGeometry relative="1" as="geometry">
            <mxPoint x="600" y="270" as="targetPoint" />
          </mxGeometry>
        </mxCell>
        <mxCell id="K25vXs8WVTMCiBZxx53v-110" value="API Gateway" style="rounded=1;whiteSpace=wrap;html=1;labelBackgroundColor=none;fontSize=14;fillColor=#CCE5FF;direction=south;" vertex="1" parent="1">
          <mxGeometry x="470" y="121" width="70" height="290" as="geometry" />
        </mxCell>
        <mxCell id="K25vXs8WVTMCiBZxx53v-134" value="" style="group" vertex="1" connectable="0" parent="1">
          <mxGeometry x="600" y="69" width="410" height="351.5" as="geometry" />
        </mxCell>
        <mxCell id="K25vXs8WVTMCiBZxx53v-113" value="" style="rounded=0;whiteSpace=wrap;html=1;dashed=1;labelBackgroundColor=#99CCFF;fillColor=default;container=0;" vertex="1" parent="K25vXs8WVTMCiBZxx53v-134">
          <mxGeometry width="410" height="351.5" as="geometry" />
        </mxCell>
        <mxCell id="K25vXs8WVTMCiBZxx53v-114" value="" style="sketch=0;html=1;dashed=0;whitespace=wrap;fillColor=#2875E2;strokeColor=#ffffff;points=[[0.005,0.63,0],[0.1,0.2,0],[0.9,0.2,0],[0.5,0,0],[0.995,0.63,0],[0.72,0.99,0],[0.5,1,0],[0.28,0.99,0]];shape=mxgraph.kubernetes.icon;prIcon=api;fontSize=14;container=0;" vertex="1" parent="K25vXs8WVTMCiBZxx53v-134">
          <mxGeometry x="65" y="43.5" width="50" height="48" as="geometry" />
        </mxCell>
        <mxCell id="K25vXs8WVTMCiBZxx53v-115" value="&lt;span style=&quot;font-weight: normal;&quot;&gt;ExamDefinition&lt;/span&gt;" style="text;html=1;align=center;verticalAlign=middle;resizable=0;points=[];autosize=1;strokeColor=none;fillColor=none;fontSize=14;fontStyle=1;container=0;" vertex="1" parent="K25vXs8WVTMCiBZxx53v-134">
          <mxGeometry x="30" y="16.5" width="120" height="30" as="geometry" />
        </mxCell>
        <mxCell id="K25vXs8WVTMCiBZxx53v-116" value="DB" style="sketch=0;html=1;dashed=0;whitespace=wrap;fillColor=#2875E2;strokeColor=#ffffff;points=[[0.005,0.63,0],[0.1,0.2,0],[0.9,0.2,0],[0.5,0,0],[0.995,0.63,0],[0.72,0.99,0],[0.5,1,0],[0.28,0.99,0]];shape=mxgraph.kubernetes.icon;prIcon=pv;labelBackgroundColor=default;fontSize=14;" vertex="1" parent="K25vXs8WVTMCiBZxx53v-134">
          <mxGeometry x="89" y="291.5" width="50" height="48" as="geometry" />
        </mxCell>
        <mxCell id="K25vXs8WVTMCiBZxx53v-128" style="edgeStyle=none;rounded=0;orthogonalLoop=1;jettySize=auto;html=1;exitX=0.5;exitY=1;exitDx=0;exitDy=0;exitPerimeter=0;fontSize=14;" edge="1" parent="K25vXs8WVTMCiBZxx53v-134" source="K25vXs8WVTMCiBZxx53v-117">
          <mxGeometry relative="1" as="geometry">
            <mxPoint x="110" y="211.5" as="targetPoint" />
          </mxGeometry>
        </mxCell>
        <mxCell id="K25vXs8WVTMCiBZxx53v-131" style="edgeStyle=none;rounded=0;orthogonalLoop=1;jettySize=auto;html=1;exitX=0.5;exitY=1;exitDx=0;exitDy=0;exitPerimeter=0;fontSize=14;" edge="1" parent="K25vXs8WVTMCiBZxx53v-134" source="K25vXs8WVTMCiBZxx53v-117">
          <mxGeometry relative="1" as="geometry">
            <mxPoint x="350" y="171.5" as="targetPoint" />
          </mxGeometry>
        </mxCell>
        <mxCell id="K25vXs8WVTMCiBZxx53v-117" value="" style="sketch=0;html=1;dashed=0;whitespace=wrap;fillColor=#2875E2;strokeColor=#ffffff;points=[[0.005,0.63,0],[0.1,0.2,0],[0.9,0.2,0],[0.5,0,0],[0.995,0.63,0],[0.72,0.99,0],[0.5,1,0],[0.28,0.99,0]];shape=mxgraph.kubernetes.icon;prIcon=api;fontSize=14;container=0;" vertex="1" parent="K25vXs8WVTMCiBZxx53v-134">
          <mxGeometry x="185" y="43.5" width="50" height="48" as="geometry" />
        </mxCell>
        <mxCell id="K25vXs8WVTMCiBZxx53v-118" value="&lt;span style=&quot;font-weight: normal;&quot;&gt;Exam&lt;/span&gt;" style="text;html=1;align=center;verticalAlign=middle;resizable=0;points=[];autosize=1;strokeColor=none;fillColor=none;fontSize=14;fontStyle=1;container=0;" vertex="1" parent="K25vXs8WVTMCiBZxx53v-134">
          <mxGeometry x="180" y="16.5" width="60" height="30" as="geometry" />
        </mxCell>
        <mxCell id="K25vXs8WVTMCiBZxx53v-129" style="edgeStyle=none;rounded=0;orthogonalLoop=1;jettySize=auto;html=1;exitX=0.28;exitY=0.99;exitDx=0;exitDy=0;exitPerimeter=0;fontSize=14;" edge="1" parent="K25vXs8WVTMCiBZxx53v-134" source="K25vXs8WVTMCiBZxx53v-120">
          <mxGeometry relative="1" as="geometry">
            <mxPoint x="110" y="211.5" as="targetPoint" />
          </mxGeometry>
        </mxCell>
        <mxCell id="K25vXs8WVTMCiBZxx53v-132" style="edgeStyle=none;rounded=0;orthogonalLoop=1;jettySize=auto;html=1;exitX=0.28;exitY=0.99;exitDx=0;exitDy=0;exitPerimeter=0;fontSize=14;" edge="1" parent="K25vXs8WVTMCiBZxx53v-134" source="K25vXs8WVTMCiBZxx53v-120">
          <mxGeometry relative="1" as="geometry">
            <mxPoint x="350" y="171.5" as="targetPoint" />
          </mxGeometry>
        </mxCell>
        <mxCell id="K25vXs8WVTMCiBZxx53v-120" value="" style="sketch=0;html=1;dashed=0;whitespace=wrap;fillColor=#2875E2;strokeColor=#ffffff;points=[[0.005,0.63,0],[0.1,0.2,0],[0.9,0.2,0],[0.5,0,0],[0.995,0.63,0],[0.72,0.99,0],[0.5,1,0],[0.28,0.99,0]];shape=mxgraph.kubernetes.icon;prIcon=api;fontSize=14;container=0;" vertex="1" parent="K25vXs8WVTMCiBZxx53v-134">
          <mxGeometry x="275" y="43.5" width="50" height="48" as="geometry" />
        </mxCell>
        <mxCell id="K25vXs8WVTMCiBZxx53v-121" value="&lt;span style=&quot;font-weight: normal;&quot;&gt;Evaluation&lt;/span&gt;" style="text;html=1;align=center;verticalAlign=middle;resizable=0;points=[];autosize=1;strokeColor=none;fillColor=none;fontSize=14;fontStyle=1;container=0;" vertex="1" parent="K25vXs8WVTMCiBZxx53v-134">
          <mxGeometry x="255" y="16.5" width="90" height="30" as="geometry" />
        </mxCell>
        <mxCell id="K25vXs8WVTMCiBZxx53v-133" style="edgeStyle=none;rounded=0;orthogonalLoop=1;jettySize=auto;html=1;exitX=0.5;exitY=1;exitDx=0;exitDy=0;exitPerimeter=0;entryX=0.5;entryY=0;entryDx=0;entryDy=0;entryPerimeter=0;fontSize=14;" edge="1" parent="K25vXs8WVTMCiBZxx53v-134" source="K25vXs8WVTMCiBZxx53v-122" target="K25vXs8WVTMCiBZxx53v-116">
          <mxGeometry relative="1" as="geometry" />
        </mxCell>
        <mxCell id="K25vXs8WVTMCiBZxx53v-122" value="" style="sketch=0;html=1;dashed=0;whitespace=wrap;fillColor=#2875E2;strokeColor=#ffffff;points=[[0.005,0.63,0],[0.1,0.2,0],[0.9,0.2,0],[0.5,0,0],[0.995,0.63,0],[0.72,0.99,0],[0.5,1,0],[0.28,0.99,0]];shape=mxgraph.kubernetes.icon;prIcon=api;fontSize=14;container=0;" vertex="1" parent="K25vXs8WVTMCiBZxx53v-134">
          <mxGeometry x="85" y="208.5" width="50" height="48" as="geometry" />
        </mxCell>
        <mxCell id="K25vXs8WVTMCiBZxx53v-127" style="edgeStyle=none;rounded=0;orthogonalLoop=1;jettySize=auto;html=1;entryX=0.5;entryY=0;entryDx=0;entryDy=0;entryPerimeter=0;fontSize=14;" edge="1" parent="K25vXs8WVTMCiBZxx53v-134" source="K25vXs8WVTMCiBZxx53v-114" target="K25vXs8WVTMCiBZxx53v-122">
          <mxGeometry relative="1" as="geometry" />
        </mxCell>
        <mxCell id="K25vXs8WVTMCiBZxx53v-123" value="&lt;span style=&quot;font-weight: normal;&quot;&gt;Data&lt;br&gt;Layer&lt;/span&gt;" style="text;html=1;align=center;verticalAlign=middle;resizable=0;points=[];autosize=1;strokeColor=none;fillColor=none;fontSize=14;fontStyle=1;container=0;" vertex="1" parent="K25vXs8WVTMCiBZxx53v-134">
          <mxGeometry x="30" y="207.5" width="60" height="50" as="geometry" />
        </mxCell>
        <mxCell id="K25vXs8WVTMCiBZxx53v-125" value="" style="sketch=0;html=1;dashed=0;whitespace=wrap;fillColor=#2875E2;strokeColor=#ffffff;points=[[0.005,0.63,0],[0.1,0.2,0],[0.9,0.2,0],[0.5,0,0],[0.995,0.63,0],[0.72,0.99,0],[0.5,1,0],[0.28,0.99,0]];shape=mxgraph.kubernetes.icon;prIcon=api;fontSize=14;container=0;" vertex="1" parent="K25vXs8WVTMCiBZxx53v-134">
          <mxGeometry x="345" y="141" width="50" height="48" as="geometry" />
        </mxCell>
        <mxCell id="K25vXs8WVTMCiBZxx53v-130" style="edgeStyle=none;rounded=0;orthogonalLoop=1;jettySize=auto;html=1;entryX=0.005;entryY=0.63;entryDx=0;entryDy=0;entryPerimeter=0;fontSize=14;" edge="1" parent="K25vXs8WVTMCiBZxx53v-134" source="K25vXs8WVTMCiBZxx53v-114" target="K25vXs8WVTMCiBZxx53v-125">
          <mxGeometry relative="1" as="geometry" />
        </mxCell>
        <mxCell id="K25vXs8WVTMCiBZxx53v-126" value="&lt;span style=&quot;font-weight: normal;&quot;&gt;Auth&lt;/span&gt;" style="text;html=1;align=center;verticalAlign=middle;resizable=0;points=[];autosize=1;strokeColor=none;fillColor=none;fontSize=14;fontStyle=1;container=0;" vertex="1" parent="K25vXs8WVTMCiBZxx53v-134">
          <mxGeometry x="345" y="114" width="50" height="30" as="geometry" />
        </mxCell>
        <mxCell id="K25vXs8WVTMCiBZxx53v-138" value="" style="group" vertex="1" connectable="0" parent="1">
          <mxGeometry x="703.5" y="470" width="203" height="170" as="geometry" />
        </mxCell>
        <mxCell id="K25vXs8WVTMCiBZxx53v-75" value="" style="rounded=1;whiteSpace=wrap;html=1;fontSize=11;" vertex="1" parent="K25vXs8WVTMCiBZxx53v-138">
          <mxGeometry width="203" height="170" as="geometry" />
        </mxCell>
        <mxCell id="K25vXs8WVTMCiBZxx53v-135" value="" style="verticalLabelPosition=bottom;html=1;verticalAlign=top;align=center;strokeColor=none;fillColor=#00BEF2;shape=mxgraph.azure.cloud_service;labelBackgroundColor=default;fontSize=14;" vertex="1" parent="K25vXs8WVTMCiBZxx53v-138">
          <mxGeometry x="10" width="50" height="40" as="geometry" />
        </mxCell>
        <mxCell id="K25vXs8WVTMCiBZxx53v-136" value="CloudService" style="text;html=1;align=center;verticalAlign=middle;resizable=0;points=[];autosize=1;strokeColor=none;fillColor=none;fontSize=14;fontStyle=1" vertex="1" parent="K25vXs8WVTMCiBZxx53v-138">
          <mxGeometry x="7" y="40" width="110" height="30" as="geometry" />
        </mxCell>
        <mxCell id="K25vXs8WVTMCiBZxx53v-77" value="Metrics" style="rounded=1;whiteSpace=wrap;html=1;fontSize=11;" vertex="1" parent="K25vXs8WVTMCiBZxx53v-138">
          <mxGeometry x="106.5" y="70.00111111111107" width="76" height="33.333333333333336" as="geometry" />
        </mxCell>
        <mxCell id="K25vXs8WVTMCiBZxx53v-79" value="Automation" style="rounded=1;whiteSpace=wrap;html=1;fontSize=11;" vertex="1" parent="K25vXs8WVTMCiBZxx53v-138">
          <mxGeometry x="106.5" y="114.44555555555553" width="76" height="33.333333333333336" as="geometry" />
        </mxCell>
        <mxCell id="K25vXs8WVTMCiBZxx53v-80" value="Logging" style="rounded=1;whiteSpace=wrap;html=1;fontSize=11;" vertex="1" parent="K25vXs8WVTMCiBZxx53v-138">
          <mxGeometry x="20.5" y="70.00111111111107" width="76" height="33.333333333333336" as="geometry" />
        </mxCell>
        <mxCell id="K25vXs8WVTMCiBZxx53v-81" value="Monitoring" style="rounded=1;whiteSpace=wrap;html=1;fontSize=11;" vertex="1" parent="K25vXs8WVTMCiBZxx53v-138">
          <mxGeometry x="20.5" y="114.44555555555553" width="76" height="33.333333333333336" as="geometry" />
        </mxCell>
      </root>
    </mxGraphModel>
  </diagram>
</mxfile>
